# xmcd
#
# Track frame offsets:
#	150
#	21266
#	38801
#	56003
#	70271
#	94070
#	123242
#	143264
#	158182
#	173520
#	191938
#	207309
#	220891
#	241781
#	267201
#
# Disc length: 3825 seconds
#
# Revision: 1
# Processed by: cddbd v1.5.2PL0 Copyright (c) Steve Scherf et al.
# Submitted via: audiograbber 1.83.01
#
DISCID=cf0eef0f
DTITLE=Blue Rose - Blue Rose Nuggets 62
DYEAR=2013
DGENRE=Country Rock
TTITLE0=Austin Collins - Just The Same
TTITLE1=The Statesboro Revue - Half Mile To Lincoln
TTITLE2=David Olney - Johnson City Blues
TTITLE3=Red Star Belgrade - My Wife
TTITLE4=The Del-Lords - Flying
TTITLE5=Tift Merritt - Ain't Looking Closely
TTITLE6=Poco - Neil Young
TTITLE7=Chip Taylor - Never Said Goodbye
TTITLE8=Willie Nile - Life On Bleecker Street
TTITLE9=Driveway - Kiss
TTITLE10=Jeff Black - Hollow Of Your Hand
TTITLE11=Leeroy Stagger - Cities On Fire
TTITLE12=I See Hawkins In L.A. - Oklahoma's Gone Dry
TTITLE13=Jason Isbell and The 400 Unit - Codeine
TTITLE14=The Whipsaws - Took My Tears
EXTD=
EXTT0=
EXTT1=
EXTT2=
EXTT3=
EXTT4=
EXTT5=
EXTT6=
EXTT7=
EXTT8=
EXTT9=
EXTT10=
EXTT11=
EXTT12=
EXTT13=
EXTT14=
PLAYORDER=
